<?xml version="1.0" encoding="utf-8"?>
<!-- Generator: Adobe Illustrator 21.0.2, SVG Export Plug-In . SVG Version: 6.00 Build 0)  -->
<svg version="1.1" id="Layer_1" xmlns="http://www.w3.org/2000/svg" xmlns:xlink="http://www.w3.org/1999/xlink" x="0px" y="0px"
	 viewBox="0 0 51.3 44.6" style="enable-background:new 0 0 51.3 44.6;" xml:space="preserve">
<style type="text/css">
	.st0{fill:#EAEAF4;}
</style>
<g>
	<g>
		<rect x="4.8" y="19.9" class="st0" width="1.6" height="24.7"/>
		<path class="st0" d="M6.3,13.9v-2.1c0-3.5,0.6-5.9,1.8-7.2c1.2-2,4.2-2.9,8.9-2.9c0.5,0,1,0,1.5,0c0.1,0,0.1,0,0.2,0V0.2
			c-0.8-0.1-1.4-0.1-1.8-0.1c-0.4,0-0.9,0-1.5,0c-4.7,0-7.7,1-8.9,2.9c-1.2,1.3-1.8,3.7-1.8,7.2v2.1H0v6h1.6v-4.4H6.3z"/>
		<path class="st0" d="M18.9,13.9v-1.6h-4c0,0.5,0,1,0,1.6H18.9z"/>
		<path class="st0" d="M36.8,14.7c1.7-1.3,4-2,6.6-2c3.2,0,5.8,0.8,7.9,2.4c-0.4-0.5-0.8-1-1.3-1.4c-2.1-1.8-4.9-2.6-8.2-2.6
			c-2.7,0-4.9,0.7-6.6,2c-0.5,0.4-1,0.8-1.5,1.4v3.8C34.8,16.7,35.8,15.5,36.8,14.7z"/>
		<path class="st0" d="M45.5,22.4c-0.4-0.8-1-1.4-1.8-1.9c0.1,0.1,0.1,0.2,0.2,0.3c0.5,0.9,0.7,2.2,0.7,4v19.8h1.6V26.3
			C46.1,24.6,45.9,23.3,45.5,22.4z"/>
		<polygon class="st0" points="32.1,13.6 32.1,12 23.8,12 23.8,44.6 25.4,44.6 25.4,13.6 		"/>
	</g>
</g>
</svg>
