<?xml version="1.0" encoding="utf-8"?>
<!-- Generator: Adobe Illustrator 21.0.2, SVG Export Plug-In . SVG Version: 6.00 Build 0)  -->
<svg version="1.1" id="Layer_1" xmlns="http://www.w3.org/2000/svg" xmlns:xlink="http://www.w3.org/1999/xlink" x="0px" y="0px"
	 viewBox="0 0 162.2 44.6" style="enable-background:new 0 0 162.2 44.6;" xml:space="preserve">
<style type="text/css">
	.st0{fill:#EAEAF4;}
</style>
<g>
	<g>
		<rect x="4.9" y="19.9" class="st0" width="1.6" height="24.7"/>
		<path class="st0" d="M6.4,13.9v-2.1c0-3.5,0.6-5.9,1.8-7.2c1.2-2,4.2-2.9,8.9-2.9c0.5,0,1,0,1.5,0c0.1,0,0.1,0,0.2,0V0.2
			C18,0.1,17.4,0.1,17,0c-0.4,0-0.9,0-1.5,0c-4.7,0-7.7,1-8.9,2.9c-1.2,1.3-1.8,3.7-1.8,7.2v2.1H0.1v6h1.6v-4.4H6.4z"/>
		<path class="st0" d="M19,13.9v-1.6h-4c0,0.5,0,1,0,1.6H19z"/>
		<path class="st0" d="M36.9,14.7c1.7-1.3,4-2,6.6-2c3.2,0,5.8,0.8,7.9,2.4c-0.4-0.5-0.8-1-1.3-1.4c-2.1-1.8-4.9-2.6-8.2-2.6
			c-2.7,0-4.9,0.7-6.6,2c-0.5,0.4-1,0.8-1.5,1.4v3.8C34.9,16.7,36,15.5,36.9,14.7z"/>
		<path class="st0" d="M45.6,22.4c-0.4-0.8-1-1.4-1.8-1.9c0.1,0.1,0.1,0.2,0.2,0.3c0.5,0.9,0.7,2.2,0.7,4v19.8h1.6V26.3
			C46.3,24.6,46.1,23.3,45.6,22.4z"/>
		<polygon class="st0" points="32.2,13.6 32.2,12 24,12 24,44.6 25.6,44.6 25.6,13.6 		"/>
	</g>
	<g>
		<path class="st0" d="M75.4,28.7v3.6h0.1c0.5-1.3,1.2-2.2,2.2-2.9c1-0.7,2.2-1,3.6-0.9v1.9c-0.9,0-1.6,0.1-2.3,0.3
			c-0.7,0.3-1.3,0.7-1.8,1.2c-0.5,0.5-0.9,1.1-1.2,1.8c-0.3,0.7-0.4,1.4-0.4,2.3v8.2h-1.9V28.7H75.4z"/>
		<path class="st0" d="M101,31.1c0.3-0.7,0.8-1.2,1.3-1.6c0.5-0.4,1.2-0.7,1.9-0.9c0.7-0.2,1.6-0.3,2.5-0.3c0.7,0,1.4,0.1,2,0.2
			c0.7,0.1,1.3,0.4,1.8,0.7c0.5,0.4,1,0.9,1.3,1.5c0.3,0.7,0.5,1.5,0.5,2.5v8.2c0,0.8,0.4,1.1,1.1,1.1c0.2,0,0.4,0,0.6-0.1V44
			c-0.2,0-0.4,0.1-0.6,0.1c-0.2,0-0.4,0-0.6,0c-0.5,0-0.9-0.1-1.2-0.2c-0.3-0.1-0.5-0.3-0.7-0.6c-0.2-0.2-0.3-0.5-0.3-0.9
			c0-0.3-0.1-0.7-0.1-1.1h-0.1c-0.3,0.5-0.7,0.9-1,1.3c-0.4,0.4-0.7,0.7-1.2,1c-0.4,0.3-0.9,0.5-1.5,0.6c-0.6,0.1-1.2,0.2-2,0.2
			c-0.7,0-1.4-0.1-2-0.3s-1.2-0.4-1.6-0.8c-0.5-0.4-0.8-0.8-1.1-1.4c-0.3-0.6-0.4-1.2-0.4-2c0-1.1,0.2-1.9,0.7-2.5
			c0.5-0.6,1.1-1.1,1.9-1.4c0.8-0.3,1.7-0.5,2.7-0.7c1-0.1,2-0.3,3-0.4c0.4,0,0.8-0.1,1-0.1c0.3-0.1,0.5-0.2,0.8-0.3
			c0.2-0.1,0.4-0.4,0.5-0.6c0.1-0.3,0.2-0.6,0.2-1c0-0.6-0.1-1.2-0.3-1.6c-0.2-0.4-0.5-0.7-0.9-1c-0.4-0.2-0.8-0.4-1.3-0.5
			c-0.5-0.1-1-0.1-1.6-0.1c-1.2,0-2.2,0.3-2.9,0.9c-0.8,0.6-1.2,1.5-1.2,2.7h-1.9C100.5,32.5,100.7,31.7,101,31.1z M110.4,35.7
			c-0.1,0.2-0.4,0.4-0.7,0.5c-0.3,0.1-0.6,0.2-0.9,0.2c-0.8,0.1-1.6,0.3-2.5,0.4c-0.9,0.1-1.6,0.3-2.3,0.5c-0.7,0.2-1.3,0.5-1.7,0.9
			c-0.4,0.4-0.7,1-0.7,1.8c0,0.5,0.1,0.9,0.3,1.3s0.4,0.7,0.8,1c0.3,0.3,0.7,0.5,1.1,0.6c0.4,0.1,0.9,0.2,1.3,0.2
			c0.7,0,1.4-0.1,2.1-0.3c0.7-0.2,1.2-0.5,1.7-1c0.5-0.4,0.9-0.9,1.2-1.5c0.3-0.6,0.4-1.3,0.4-2L110.4,35.7L110.4,35.7z"/>
		<path class="st0" d="M123.5,28.7v1.6h-3.2v10.4c0,0.6,0.1,1.1,0.3,1.5c0.2,0.4,0.6,0.5,1.3,0.6c0.5,0,1.1,0,1.6-0.1v1.6
			c-0.3,0-0.6,0-0.8,0c-0.3,0-0.6,0-0.8,0c-1.3,0-2.1-0.2-2.6-0.7s-0.7-1.4-0.7-2.7V30.3h-2.7v-1.6h2.7V24h1.9v4.6H123.5z"/>
		<path class="st0" d="M129.4,22.7v3h-1.9v-3H129.4z M129.4,28.7v15.5h-1.9V28.7H129.4z"/>
		<path class="st0" d="M134.5,28.7l4.9,13.6h0.1l4.8-13.6h2l-5.8,15.5h-2l-6-15.5H134.5z"/>
		<g>
			<path class="st0" d="M66.3,41.9c-0.4,0.3-0.8,0.6-1.2,0.8c-0.5,0.2-1.1,0.3-1.7,0.3c-0.9,0-1.7-0.2-2.4-0.6
				c-0.7-0.4-1.2-0.9-1.7-1.5c-0.4-0.6-0.8-1.3-1-2.1S58,37.2,58,36.4s0.1-1.6,0.3-2.4s0.6-1.5,1-2.1c0.5-0.6,1-1.1,1.7-1.5
				c0.7-0.4,1.5-0.6,2.4-0.6c1.3,0,2.2,0.3,2.9,1c0,0,0.1,0.1,0.1,0.1v-2c-0.9-0.4-1.9-0.6-3-0.6c-1.2,0-2.2,0.2-3.1,0.7
				c-0.9,0.4-1.7,1-2.3,1.8c-0.6,0.7-1.1,1.6-1.4,2.6c-0.3,1-0.5,2-0.5,3.2s0.2,2.2,0.5,3.2c0.3,1,0.8,1.9,1.4,2.6
				c0.6,0.7,1.4,1.3,2.3,1.8c0.9,0.4,2,0.6,3.1,0.6c1.1,0,2.1-0.2,3-0.7v-2H66.3z"/>
		</g>
		<g>
			<path class="st0" d="M158.7,41.9c-0.8,0.7-1.9,1.1-3.2,1.1c-0.9,0-1.7-0.2-2.3-0.6c-0.6-0.4-1.2-0.9-1.6-1.4
				c-0.4-0.6-0.7-1.2-0.9-2c-0.2-0.7-0.3-1.4-0.3-2.1h11.9c0-1.1-0.1-2.1-0.3-3.2c-0.2-1.1-0.6-2-1.2-2.8c-0.6-0.8-1.3-1.5-2.1-2
				c-0.9-0.5-1.9-0.8-3.2-0.8c-1.2,0-2.3,0.2-3.2,0.7c-0.9,0.5-1.6,1.1-2.2,1.9c-0.6,0.8-1,1.6-1.2,2.6c-0.3,1-0.4,2-0.4,3
				c0,1.1,0.1,2.1,0.4,3.1s0.7,1.9,1.2,2.6s1.3,1.3,2.2,1.8c0.9,0.4,1.9,0.6,3.2,0.6c1.3,0,2.4-0.2,3.4-0.7v-2.1
				C158.8,41.8,158.8,41.9,158.7,41.9z M150.9,33.3c0.2-0.7,0.6-1.3,1-1.8c0.4-0.5,0.9-0.9,1.5-1.2c0.6-0.3,1.3-0.5,2.1-0.5
				c0.8,0,1.4,0.2,2,0.5s1.1,0.7,1.5,1.2c0.4,0.5,0.7,1.1,1,1.8c0.2,0.7,0.4,1.4,0.4,2.1h-10C150.5,34.6,150.6,33.9,150.9,33.3z"/>
		</g>
		<g>
			<path class="st0" d="M93.3,41.9C92.5,42.6,91.4,43,90,43c-0.9,0-1.7-0.2-2.3-0.6c-0.6-0.4-1.2-0.9-1.6-1.4
				c-0.4-0.6-0.7-1.2-0.9-2c-0.2-0.7-0.3-1.4-0.3-2.1h11.9c0-1.1-0.1-2.1-0.3-3.2c-0.2-1.1-0.6-2-1.2-2.8c-0.6-0.8-1.3-1.5-2.1-2
				c-0.9-0.5-1.9-0.8-3.2-0.8c-1.2,0-2.3,0.2-3.2,0.7c-0.9,0.5-1.6,1.1-2.2,1.9c-0.6,0.8-1,1.6-1.2,2.6c-0.3,1-0.4,2-0.4,3
				c0,1.1,0.1,2.1,0.4,3.1s0.7,1.9,1.2,2.6s1.3,1.3,2.2,1.8c0.9,0.4,1.9,0.6,3.2,0.6c1.3,0,2.4-0.2,3.4-0.7v-2.1
				C93.3,41.8,93.3,41.9,93.3,41.9z M85.4,33.3c0.2-0.7,0.6-1.3,1-1.8c0.4-0.5,0.9-0.9,1.5-1.2c0.6-0.3,1.3-0.5,2.1-0.5
				c0.8,0,1.4,0.2,2,0.5s1.1,0.7,1.5,1.2c0.4,0.5,0.7,1.1,1,1.8c0.2,0.7,0.4,1.4,0.4,2.1h-10C85,34.6,85.2,33.9,85.4,33.3z"/>
		</g>
	</g>
</g>
</svg>
